<svg xmlns="http://www.w3.org/2000/svg" aria-hidden="true" style="width: 0; height: 0; position: absolute;"><symbol id="burger" viewBox="0 0 50 50"><path d="M 5 8 A 2.0002 2.0002 0 1 0 5 12 L 45 12 A 2.0002 2.0002 0 1 0 45 8 L 5 8 z M 5 23 A 2.0002 2.0002 0 1 0 5 27 L 45 27 A 2.0002 2.0002 0 1 0 45 23 L 5 23 z M 5 38 A 2.0002 2.0002 0 1 0 5 42 L 45 42 A 2.0002 2.0002 0 1 0 45 38 L 5 38 z"></path></symbol><symbol id="edit" viewBox="0 0 100 100">
	<path d="M 85.155 89.979 c -0.425 0 -0.855 -0.056 -1.282 -0.17 l -19.906 -5.334 c -0.373 -0.1 -0.731 -0.243 -1.067 -0.426 l -0.143 0.137 l -2.656 -2.608 l 21.456 -21.457 l 1.45 1.45 c 0.73 0.639 1.244 1.459 1.489 2.377 l 5.334 19.905 c 0.455 1.699 -0.015 3.454 -1.258 4.698 C 87.641 89.482 86.422 89.979 85.155 89.979 z M 64.392 81.483 c 0.108 0.052 0.222 0.095 0.343 0.127 l 19.907 5.334 c 0.954 0.259 1.598 -0.258 1.831 -0.491 c 0.233 -0.233 0.747 -0.877 0.491 -1.831 L 81.63 64.716 c -0.032 -0.12 -0.074 -0.234 -0.129 -0.342 L 64.392 81.483 z"></path>
	<path d="M 55.935 77.412 L 3.789 25.266 c -5.052 -5.051 -5.052 -13.271 0 -18.322 l 3.134 -3.134 c 5.052 -5.052 13.272 -5.052 18.322 0 l 52.146 52.146 L 55.935 77.412 z M 16.084 2.986 c -2.558 0 -5.116 0.973 -7.064 2.921 L 5.886 9.041 c -3.895 3.895 -3.895 10.232 0 14.127 l 50.049 50.049 l 17.261 -17.262 L 23.148 5.907 C 21.2 3.96 18.642 2.986 16.084 2.986 z"></path>
</symbol><symbol id="logout" viewBox="0 0 384.971 384.971">
		<path d="M180.455,360.91H24.061V24.061h156.394c6.641,0,12.03-5.39,12.03-12.03s-5.39-12.03-12.03-12.03H12.03
			C5.39,0.001,0,5.39,0,12.031V372.94c0,6.641,5.39,12.03,12.03,12.03h168.424c6.641,0,12.03-5.39,12.03-12.03
			C192.485,366.299,187.095,360.91,180.455,360.91z"></path>
		<path d="M381.481,184.088l-83.009-84.2c-4.704-4.752-12.319-4.74-17.011,0c-4.704,4.74-4.704,12.439,0,17.179l62.558,63.46H96.279
			c-6.641,0-12.03,5.438-12.03,12.151c0,6.713,5.39,12.151,12.03,12.151h247.74l-62.558,63.46c-4.704,4.752-4.704,12.439,0,17.179
			c4.704,4.752,12.319,4.752,17.011,0l82.997-84.2C386.113,196.588,386.161,188.756,381.481,184.088z"></path>
</symbol><symbol id="message" viewBox="0 0 1042 1024"><path d="M532.768959 187.823633c-198.659612 0-361.199295 140.867725-361.199294 316.049383 0 99.329806 52.373898 187.823633 135.449735 245.61552v158.92769l158.92769-95.717813c21.671958 3.611993 45.149912 5.417989 66.821869 5.417989 198.659612 0 361.199295-140.867725 361.199295-316.049383 0-173.375661-160.733686-314.243386-361.199295-314.243386z m113.777778 428.021164H420.797178c-12.641975 0-23.477954-10.835979-23.477954-23.477954 0-12.641975 10.835979-23.477954 23.477954-23.477954h225.749559c12.641975 0 23.477954 10.835979 23.477954 23.477954-1.805996 12.641975-10.835979 23.477954-23.477954 23.477954z m45.149912-135.449735H375.647266c-12.641975 0-23.477954-10.835979-23.477954-23.477954 0-12.641975 10.835979-23.477954 23.477954-23.477955h316.049383c12.641975 0 23.477954 10.835979 23.477954 23.477955-1.805996 14.447972-10.835979 23.477954-23.477954 23.477954z m0 0"></path></symbol><symbol id="trash" viewBox="0 0 100 100">
	<path d="M 64.71 90 H 25.291 c -4.693 0 -8.584 -3.67 -8.859 -8.355 l -3.928 -67.088 c -0.048 -0.825 0.246 -1.633 0.812 -2.234 c 0.567 -0.601 1.356 -0.941 2.183 -0.941 h 59.002 c 0.826 0 1.615 0.341 2.183 0.941 c 0.566 0.601 0.86 1.409 0.813 2.234 l -3.928 67.089 C 73.294 86.33 69.403 90 64.71 90 z M 18.679 17.381 l 3.743 63.913 C 22.51 82.812 23.771 84 25.291 84 H 64.71 c 1.52 0 2.779 -1.188 2.868 -2.705 l 3.742 -63.914 H 18.679 z"></path>
	<path d="M 80.696 17.381 H 9.304 c -1.657 0 -3 -1.343 -3 -3 s 1.343 -3 3 -3 h 71.393 c 1.657 0 3 1.343 3 3 S 82.354 17.381 80.696 17.381 z"></path>
	<path d="M 58.729 17.381 H 31.271 c -1.657 0 -3 -1.343 -3 -3 V 8.789 C 28.271 3.943 32.214 0 37.061 0 h 15.879 c 4.847 0 8.789 3.943 8.789 8.789 v 5.592 C 61.729 16.038 60.386 17.381 58.729 17.381 z M 34.271 11.381 h 21.457 V 8.789 C 55.729 7.251 54.478 6 52.939 6 H 37.061 c -1.538 0 -2.789 1.251 -2.789 2.789 V 11.381 z"></path>
	<path d="M 58.33 74.991 c -0.06 0 -0.118 -0.002 -0.179 -0.005 c -1.653 -0.097 -2.916 -1.517 -2.819 -3.171 l 2.474 -42.244 c 0.097 -1.655 1.508 -2.933 3.171 -2.819 c 1.653 0.097 2.916 1.516 2.819 3.17 l -2.474 42.245 C 61.229 73.761 59.906 74.991 58.33 74.991 z"></path>
	<path d="M 31.669 74.991 c -1.577 0 -2.898 -1.23 -2.992 -2.824 l -2.473 -42.245 c -0.097 -1.654 1.165 -3.073 2.819 -3.17 c 1.646 -0.111 3.073 1.165 3.17 2.819 l 2.473 42.244 c 0.097 1.654 -1.165 3.074 -2.819 3.171 C 31.788 74.989 31.729 74.991 31.669 74.991 z"></path>
	<path d="M 45 74.991 c -1.657 0 -3 -1.343 -3 -3 V 29.747 c 0 -1.657 1.343 -3 3 -3 c 1.657 0 3 1.343 3 3 v 42.244 C 48 73.648 46.657 74.991 45 74.991 z"></path>
</symbol></svg>