<svg xmlns="http://www.w3.org/2000/svg" aria-hidden="true" style="width: 0; height: 0; position: absolute;"><symbol id="burger" viewBox="0 0 50 50"><path d="M 5 8 A 2.0002 2.0002 0 1 0 5 12 L 45 12 A 2.0002 2.0002 0 1 0 45 8 L 5 8 z M 5 23 A 2.0002 2.0002 0 1 0 5 27 L 45 27 A 2.0002 2.0002 0 1 0 45 23 L 5 23 z M 5 38 A 2.0002 2.0002 0 1 0 5 42 L 45 42 A 2.0002 2.0002 0 1 0 45 38 L 5 38 z"></path></symbol><symbol id="logout" viewBox="0 0 384.971 384.971">
		<path d="M180.455,360.91H24.061V24.061h156.394c6.641,0,12.03-5.39,12.03-12.03s-5.39-12.03-12.03-12.03H12.03
			C5.39,0.001,0,5.39,0,12.031V372.94c0,6.641,5.39,12.03,12.03,12.03h168.424c6.641,0,12.03-5.39,12.03-12.03
			C192.485,366.299,187.095,360.91,180.455,360.91z"></path>
		<path d="M381.481,184.088l-83.009-84.2c-4.704-4.752-12.319-4.74-17.011,0c-4.704,4.74-4.704,12.439,0,17.179l62.558,63.46H96.279
			c-6.641,0-12.03,5.438-12.03,12.151c0,6.713,5.39,12.151,12.03,12.151h247.74l-62.558,63.46c-4.704,4.752-4.704,12.439,0,17.179
			c4.704,4.752,12.319,4.752,17.011,0l82.997-84.2C386.113,196.588,386.161,188.756,381.481,184.088z"></path>
</symbol><symbol id="message" viewBox="0 0 1042 1024"><path d="M532.768959 187.823633c-198.659612 0-361.199295 140.867725-361.199294 316.049383 0 99.329806 52.373898 187.823633 135.449735 245.61552v158.92769l158.92769-95.717813c21.671958 3.611993 45.149912 5.417989 66.821869 5.417989 198.659612 0 361.199295-140.867725 361.199295-316.049383 0-173.375661-160.733686-314.243386-361.199295-314.243386z m113.777778 428.021164H420.797178c-12.641975 0-23.477954-10.835979-23.477954-23.477954 0-12.641975 10.835979-23.477954 23.477954-23.477954h225.749559c12.641975 0 23.477954 10.835979 23.477954 23.477954-1.805996 12.641975-10.835979 23.477954-23.477954 23.477954z m45.149912-135.449735H375.647266c-12.641975 0-23.477954-10.835979-23.477954-23.477954 0-12.641975 10.835979-23.477954 23.477954-23.477955h316.049383c12.641975 0 23.477954 10.835979 23.477954 23.477955-1.805996 14.447972-10.835979 23.477954-23.477954 23.477954z m0 0"></path></symbol></svg>